<svg width="318" height="560" xmlns="http://www.w3.org/2000/svg" xmlns:xlink="http://www.w3.org/1999/xlink" xml:space="preserve" overflow="hidden"><g transform="translate(-2857 -640)"><path d="M2857 958 2969.45 958 2969.67 959.09C2977.3 977.109 2995.17 989.752 3016 989.752L3016 989.752C3036.83 989.752 3054.69 977.109 3062.33 959.091L3062.55 958 3175 958 3175 1071.48C3175 1142.46 3117.37 1200 3046.28 1200L2985.72 1200C2914.63 1200 2857 1142.46 2857 1071.48L2857 958Z" fill="#2E2E2E" fill-rule="evenodd"/><path d="M2993 929.848 3018.93 957.505 3016.5 958C3013.26 958 3010.16 957.337 3007.35 956.137L3000.86 951.723 2999 949.737 2994.85 943.521C2993.66 940.685 2993 937.567 2993 934.293ZM2993 902.872 3035.22 947.909 3033.12 951.056 3028.48 954.209 2993 916.36ZM2993.96 876.918 3040 926.03 3040 934.293 3039.14 938.599 2993 889.383 2993 881.707ZM3004.85 861.563 3040 899.054 3040 912.542 2998.01 867.749 2999.88 864.944ZM3016.5 858C3029.48 858 3040 868.614 3040 881.707L3040 885.566 3014.53 858.401Z" fill="#2E2E2E" fill-rule="evenodd"/><path d="M2986.04 726 3008 726 3008 836.15 2996.78 838.413C2978.69 846.057 2966 863.953 2966 884.81L2966 930 2857 930 2857 854.911C2857 783.715 2914.77 726 2986.04 726Z" fill="#2E2E2E" fill-rule="evenodd"/><path d="M3035 726 3046.17 726C3117.32 726 3175 783.715 3175 854.911L3175 930 3066.18 930 3066.18 884.81C3066.18 863.953 3053.51 846.057 3035.45 838.413L3035 838.322 3035 726Z" fill="#2E2E2E" fill-rule="evenodd"/><path d="M3080.23 671.027C3084.42 666.832 3091.23 666.832 3095.42 671.027L3095.42 671.027C3099.62 675.222 3099.62 682.024 3095.42 686.219L3076.76 704.883C3072.56 709.078 3065.76 709.078 3061.57 704.883L3061.57 704.883C3057.37 700.688 3057.37 693.886 3061.57 689.691Z" fill="#2E2E2E" fill-rule="evenodd"/><path d="M2955.44 686.581C2951.25 682.386 2951.25 675.585 2955.44 671.39L2955.44 671.39C2959.64 667.195 2966.44 667.195 2970.63 671.39L2989.3 690.054C2993.49 694.249 2993.49 701.05 2989.3 705.245L2989.3 705.245C2985.1 709.44 2978.3 709.44 2974.1 705.245Z" fill="#2E2E2E" fill-rule="evenodd"/><path d="M3015 650.5C3015 644.701 3019.7 640 3025.5 640L3025.5 640C3031.3 640 3036 644.701 3036 650.5L3036 677.5C3036 683.299 3031.3 688 3025.5 688L3025.5 688C3019.7 688 3015 683.299 3015 677.5Z" fill="#2E2E2E" fill-rule="evenodd"/></g></svg>