<svg width="389" height="527" xmlns="http://www.w3.org/2000/svg" xmlns:xlink="http://www.w3.org/1999/xlink" xml:space="preserve" overflow="hidden"><defs><clipPath id="clip0"><rect x="1537" y="778" width="389" height="527"/></clipPath></defs><g clip-path="url(#clip0)" transform="translate(-1537 -778)"><path d="M1537 1063 1649.45 1063 1649.67 1064.09C1657.3 1082.11 1675.17 1094.75 1696 1094.75L1696 1094.75C1716.83 1094.75 1734.69 1082.11 1742.33 1064.09L1742.55 1063 1855 1063 1855 1176.48C1855 1247.46 1797.37 1305 1726.28 1305L1665.72 1305C1594.63 1305 1537 1247.46 1537 1176.48L1537 1063Z" fill="#2E2E2E" fill-rule="evenodd"/><path d="M1672 986.5C1672 973.521 1682.52 963 1695.5 963L1695.5 963C1708.48 963 1719 973.521 1719 986.5L1719 1039.5C1719 1052.48 1708.48 1063 1695.5 1063L1695.5 1063C1682.52 1063 1672 1052.48 1672 1039.5Z" fill="#2E2E2E" fill-rule="evenodd"/><path d="M1665.19 832 1687 832 1687 941.61 1675.85 943.862C1657.88 951.469 1645.27 969.277 1645.27 990.032L1645.27 1035 1537 1035 1537 960.279C1537 889.432 1594.39 832 1665.19 832Z" fill="#2E2E2E" fill-rule="evenodd"/><path d="M1855 998.322 1855 1035 1818.16 1035ZM1849.99 926.739 1852.38 934.427 1854.98 960.056 1779.71 1035 1746.18 1035 1746.18 1030.1ZM1823.25 876.79 1833 888.557 1838.94 899.453 1746.18 991.812 1746.18 990.032C1746.18 984.843 1745.39 979.839 1743.92 975.132L1737.61 962.061ZM1779.48 843.792 1798.2 853.908 1803.45 858.218 1716.68 944.609 1715.45 943.862 1715 943.772 1715 907.999ZM1715 832 1726.17 832 1750.43 834.435 1715 869.712Z" fill="#2E2E2E" fill-rule="evenodd"/><path d="M1915.5 866C1921.3 866 1926 870.701 1926 876.5L1926 876.5C1926 882.299 1921.3 887 1915.5 887L1888.5 887C1882.7 887 1878 882.299 1878 876.5L1878 876.5C1878 870.701 1882.7 866 1888.5 866Z" fill="#2E2E2E" fill-rule="evenodd"/><path d="M1816 788.5C1816 782.701 1820.7 778 1826.5 778L1826.5 778C1832.3 778 1837 782.701 1837 788.5L1837 815.5C1837 821.299 1832.3 826 1826.5 826L1826.5 826C1820.7 826 1816 821.299 1816 815.5Z" fill="#2E2E2E" fill-rule="evenodd"/><path d="M1882.62 805.184C1886.81 800.989 1893.61 800.989 1897.81 805.184L1897.81 805.184C1902 809.379 1902 816.181 1897.81 820.376L1879.14 839.04C1874.95 843.235 1868.15 843.235 1863.95 839.04L1863.95 839.04C1859.76 834.844 1859.76 828.043 1863.95 823.848Z" fill="#2E2E2E" fill-rule="evenodd"/></g></svg>