<svg width="318" height="474" xmlns="http://www.w3.org/2000/svg" xmlns:xlink="http://www.w3.org/1999/xlink" xml:space="preserve" overflow="hidden"><defs><clipPath id="clip0"><rect x="320" y="300" width="318" height="474"/></clipPath></defs><g clip-path="url(#clip0)" transform="translate(-320 -300)"><path d="M320 531 432.452 531 432.672 532.095C440.305 550.188 458.174 562.883 479 562.883L478.999 562.883C499.825 562.883 517.694 550.188 525.327 532.095L525.548 531 638 531 638 644.948C638 716.222 580.372 774 509.283 774L448.717 774C377.628 774 320 716.222 320 644.948L320 531Z" fill="#2E2E2E" fill-rule="evenodd"/><path d="M455 455.5C455 442.521 465.521 432 478.5 432L478.5 432C491.479 432 502 442.521 502 455.5L502 507.5C502 520.479 491.479 531 478.5 531L478.5 531C465.521 531 455 520.479 455 507.5Z" fill="#2E2E2E" fill-rule="evenodd"/><path d="M448.187 300 470 300 470 410.15 458.855 412.413C440.883 420.057 428.273 437.953 428.273 458.81L428.273 504 320 504 320 428.911C320 357.716 377.391 300 448.187 300Z" fill="#2E2E2E" fill-rule="evenodd"/><path d="M498 300 509.17 300C580.321 300 638 357.716 638 428.911L638 504 529.182 504 529.183 458.81C529.183 437.953 516.51 420.057 498.448 412.413L498 412.322 498 300Z" fill="#2E2E2E" fill-rule="evenodd"/></g></svg>