<svg width="470" height="474" xmlns="http://www.w3.org/2000/svg" xmlns:xlink="http://www.w3.org/1999/xlink" xml:space="preserve" overflow="hidden"><defs><clipPath id="clip0"><rect x="2145" y="801" width="470" height="474"/></clipPath></defs><g clip-path="url(#clip0)" transform="translate(-2145 -801)"><path d="M2145 1032 2257.45 1032 2257.67 1033.09C2265.3 1051.19 2283.17 1063.88 2304 1063.88L2304 1063.88C2324.83 1063.88 2342.69 1051.19 2350.33 1033.09L2350.55 1032 2463 1032 2463 1145.95C2463 1217.22 2405.37 1275 2334.28 1275L2273.72 1275C2202.63 1275 2145 1217.22 2145 1145.95L2145 1032Z" fill="#2E2E2E" fill-rule="evenodd"/><path d="M2280 956.5C2280 943.521 2290.52 933 2303.5 933L2303.5 933C2316.48 933 2327 943.521 2327 956.5L2327 1008.5C2327 1021.48 2316.48 1032 2303.5 1032L2303.5 1032C2290.52 1032 2280 1021.48 2280 1008.5Z" fill="#2E2E2E" fill-rule="evenodd"/><path d="M2273.19 801 2295 801 2295 911.15 2283.85 913.413C2265.88 921.057 2253.27 938.953 2253.27 959.81L2253.27 1005 2145 1005 2145 929.911C2145 858.715 2202.39 801 2273.19 801Z" fill="#2E2E2E" fill-rule="evenodd"/><path d="M2323 801 2334.17 801C2405.32 801 2463 858.715 2463 929.911L2463 1005 2354.18 1005 2354.18 959.81C2354.18 938.953 2341.51 921.057 2323.45 913.413L2323 913.322 2323 801Z" fill="#2E2E2E" fill-rule="evenodd"/><path d="M2545 899C2545 892.372 2550.37 887 2557 887L2557 887C2563.63 887 2569 892.372 2569 899L2569 1177C2569 1183.63 2563.63 1189 2557 1189L2557 1189C2550.37 1189 2545 1183.63 2545 1177Z" fill="#2E2E2E" fill-rule="evenodd"/><path d="M2558.59 822.618C2561.6 822.618 2564.61 823.765 2566.9 826.06 2581.51 840.667 2596.12 855.274 2610.72 869.882 2615.31 874.471 2615.31 881.911 2610.72 886.5L2610.72 886.5C2606.13 891.089 2598.69 891.089 2594.1 886.5L2558.02 850.417 2521.94 886.5C2517.35 891.089 2509.91 891.089 2505.32 886.5L2505.32 886.5C2500.73 881.911 2500.73 874.471 2505.32 869.881L2549.14 826.06C2551.44 823.765 2554.44 822.618 2557.45 822.618L2558.02 822.855Z" fill="#2E2E2E" fill-rule="evenodd"/><path d="M4.24915 3.44183C6.37552 1.31545 9.31319 0 12.5583 0 33.2162 0 53.8737 0.000360892 74.5315 0.000360892 81.0214 0.000360892 86.2825 5.26145 86.2825 11.7514L86.2822 11.751C86.2822 18.2409 81.0211 23.502 74.5311 23.502L23.502 23.502 23.5017 74.5319C23.5017 81.0218 18.2406 86.2829 11.7507 86.2829L11.751 86.2825C5.26109 86.2825 0 81.0214 0 74.5315L0 12.5587C0 9.31355 1.31545 6.37589 3.44183 4.24951L4.0124 4.01312Z" fill="#2E2E2E" fill-rule="evenodd" transform="matrix(0.707107 -0.707107 -0.707107 -0.707107 2556.92 1274.59)"/></g></svg>