<svg width="382" height="528" xmlns="http://www.w3.org/2000/svg" xmlns:xlink="http://www.w3.org/1999/xlink" xml:space="preserve" overflow="hidden"><defs><clipPath id="clip0"><rect x="841" y="777" width="382" height="528"/></clipPath></defs><g clip-path="url(#clip0)" transform="translate(-841 -777)"><path d="M905 1063 1017.45 1063 1017.67 1064.09C1025.31 1082.11 1043.17 1094.75 1064 1094.75L1064 1094.75C1084.83 1094.75 1102.69 1082.11 1110.33 1064.09L1110.55 1063 1223 1063 1223 1176.48C1223 1247.46 1165.37 1305 1094.28 1305L1033.72 1305C962.628 1305 905 1247.46 905 1176.48L905 1063Z" fill="#2E2E2E" fill-rule="evenodd"/><path d="M1041 986.5C1041 973.521 1051.52 963 1064.5 963L1064.5 963C1077.48 963 1088 973.521 1088 986.5L1088 1039.5C1088 1052.48 1077.48 1063 1064.5 1063L1064.5 1063C1051.52 1063 1041 1052.48 1041 1039.5Z" fill="#2E2E2E" fill-rule="evenodd"/><path d="M905 995.704 942.384 1035 905 1035ZM911.553 921.838 1013.99 1029.52 1013.99 1035 980.796 1035 905.454 955.805 907.622 934.427ZM940.866 871.897 1024.56 959.874 1022.6 962.016C1019.89 966.015 1017.73 970.424 1016.26 975.132L1014.11 989.266 923.853 894.391 927.038 888.557ZM988.073 840.766 1056 912.167 1056 941.61 1047.27 943.363 962.072 853.812 983.813 842.081ZM1034.04 832 1056 832 1056 871.79 1019.53 833.454Z" fill="#2E2E2E" fill-rule="evenodd"/><path d="M1083 832 1094.17 832C1165.32 832 1223 889.432 1223 960.279L1223 1035 1114.18 1035 1114.18 990.032C1114.18 969.277 1101.51 951.469 1083.45 943.862L1083 943.772 1083 832Z" fill="#2E2E2E" fill-rule="evenodd"/><path d="M929 788C929 781.925 933.925 777 940 777L940 777C946.075 777 951 781.925 951 788L951 814C951 820.075 946.075 825 940 825L940 825C933.925 825 929 820.075 929 814Z" fill="#2E2E2E" fill-rule="evenodd"/><path d="M851.5 887C845.701 887 841 882.299 841 876.5L841 876.5C841 870.701 845.701 866 851.5 866L878.5 866C884.299 866 889 870.701 889 876.5L889 876.5C889 882.299 884.299 887 878.5 887Z" fill="#2E2E2E" fill-rule="evenodd"/><path d="M868.613 820.069C864.418 815.874 864.418 809.073 868.613 804.878L868.613 804.878C872.808 800.683 879.61 800.683 883.805 804.878L902.469 823.542C906.664 827.737 906.664 834.538 902.469 838.733L902.469 838.733C898.274 842.928 891.472 842.928 887.277 838.733Z" fill="#2E2E2E" fill-rule="evenodd"/></g></svg>